<?xml version="1.0" encoding="utf-8"?>
<!-- Generator: Adobe Illustrator 28.0.0, SVG Export Plug-In . SVG Version: 6.00 Build 0)  -->
<svg version="1.1" id="Ebene_1" xmlns="http://www.w3.org/2000/svg" xmlns:xlink="http://www.w3.org/1999/xlink" x="0px" y="0px"
	 viewBox="0 0 1080 289" style="enable-background:new 0 0 1080 289;" xml:space="preserve">
<style type="text/css">
	.st0{fill:#FFFFFF;}
	.st1{fill:#091540;}
	.st2{fill:#4196AA;}
</style>
<g>
	<path class="st2" d="M158.35,2.89c-7.19-0.81-14.35-1.06-21.44-0.77c-17.09,0.69-33.73,4.47-49.19,10.93
		C76.16,17.87,65.27,24.2,55.34,31.86C36.85,46.13,21.71,65.01,11.93,87.43c-2.42,5.55-4.52,11.32-6.25,17.29
		c-9.66,33.22-6.62,67.18,6.25,96.65c16.35,37.46,48.58,67.68,90.8,79.95c5.48,1.59,10.97,2.83,16.46,3.74
		c14.74,2.46,29.45,2.53,43.69,0.45c53.56-7.82,100.38-45.96,116.45-101.24c13.15-45.25,2.75-91.85-23.95-126.64
		c-0.58-0.76-1.17-1.51-1.77-2.26c-17.7-22.12-42.12-39.21-71.33-47.7C174.32,5.36,166.32,3.78,158.35,2.89z M119.42,15.52
		c11.06-1.74,19.76,57.41,32.26,83.96c-7.35-8.73-61.19-75.17-54.58-78.01S108.37,17.25,119.42,15.52z M56.78,45.25
		c7.84-5.73,33.68,115.13,56.59,173.37C91.05,185.31,54.72,115.14,33.59,79.35C29.77,73.06,48.94,50.98,56.78,45.25z M105.88,270.48
		c-36.41-10.58-64.73-35.66-80.55-67.12c-16.82-37.37-12.6-75.93-11.05-87.7C30.6,145.93,136.01,279.23,105.88,270.48z
		 M155.27,273.87c-8.71,0.42-7.42-1.11-12.39-12.5c-23.71-54.43-27.55-115.85-41.13-174.39c1.37-1.48,17.96,14.46,72.67,78.84
		c12.64,14.66,61.87,72.09,48.93,81.72C198.82,265.79,177.96,272.77,155.27,273.87z M253.48,212.04
		c-5.43,7.8-45.82-29.98-63.7-70.04c-18.62-41.19-19.29-78.86-18.73-79.17c34.52,22.29,38.74,23.08,66.39,40.91
		c32.59,21.02,35.68,22.92,36.23,30.34C274.62,146.69,277.9,176.98,253.48,212.04z M253.73,76.08c11.76,18.89-18.66,2.3-35.43-9.06
		c-28.75-19.46-61.81-53.56-53.19-51.76c8.62,1.81,9.35,1.9,14.01,3.25C208.66,27.11,235.36,46.57,253.73,76.08z"/>
</g>
<g>
	<path class="st1" d="M463.89,53.45v93.72h-15.37V82.99l-28.59,64.19h-10.65l-28.72-64.19v64.19h-15.37V53.45h16.59l32.9,73.49
		l32.77-73.49H463.89z"/>
	<path class="st1" d="M506.23,53.45v93.72h-15.37V53.45H506.23z"/>
	<path class="st1" d="M589.7,128.03h-39.24l-6.74,19.15h-16.05l33.58-93.85h17.8l33.58,93.85h-16.18L589.7,128.03z M585.38,115.48
		l-15.24-43.56l-15.37,43.56H585.38z"/>
	<path class="st1" d="M732.64,53.45v93.72h-15.37V82.99l-28.59,64.19h-10.65L649.3,82.99v64.19h-15.37V53.45h16.59l32.9,73.49
		l32.77-73.49H732.64z"/>
	<path class="st1" d="M774.98,65.86v27.51h32.36v12.54h-32.36v28.72h36.41v12.54H759.6V53.32h51.78v12.54H774.98z"/>
	<path class="st1" d="M893.84,59.19c7.51,3.82,13.3,9.3,17.4,16.45c4.09,7.15,6.14,15.49,6.14,25.01c0,9.53-2.05,17.8-6.14,24.81
		c-4.09,7.01-9.89,12.39-17.4,16.11c-7.51,3.73-16.25,5.6-26.23,5.6H837V53.45h30.61C877.59,53.45,886.34,55.36,893.84,59.19z
		 M892.83,125.73c5.84-5.93,8.76-14.29,8.76-25.08c0-10.88-2.92-19.37-8.76-25.49c-5.84-6.11-14.25-9.17-25.22-9.17h-15.24v68.64
		h15.24C878.58,134.63,886.99,131.67,892.83,125.73z"/>
	<path class="st1" d="M954.73,65.86v27.51h32.36v12.54h-32.36v28.72h36.41v12.54h-51.78V53.32h51.78v12.54H954.73z"/>
	<path class="st1" d="M1030.65,144.81c-5.04-2.2-8.99-5.33-11.87-9.37c-2.88-4.05-4.32-8.77-4.32-14.16h16.45
		c0.36,4.05,1.96,7.37,4.79,9.98c2.83,2.61,6.81,3.91,11.93,3.91c5.3,0,9.44-1.28,12.41-3.84c2.97-2.56,4.45-5.87,4.45-9.91
		c0-3.15-0.92-5.71-2.76-7.69c-1.84-1.98-4.14-3.51-6.88-4.58c-2.74-1.08-6.54-2.25-11.39-3.51c-6.11-1.62-11.08-3.26-14.9-4.92
		c-3.82-1.66-7.08-4.25-9.78-7.75c-2.7-3.51-4.05-8.18-4.05-14.02c0-5.39,1.35-10.11,4.05-14.16c2.7-4.05,6.47-7.15,11.33-9.3
		c4.85-2.16,10.47-3.24,16.86-3.24c9.08,0,16.52,2.27,22.32,6.81c5.8,4.54,9.01,10.77,9.64,18.68h-16.99
		c-0.27-3.42-1.89-6.34-4.85-8.77c-2.97-2.43-6.88-3.64-11.73-3.64c-4.41,0-8,1.12-10.79,3.37c-2.79,2.25-4.18,5.48-4.18,9.71
		c0,2.88,0.88,5.24,2.63,7.08c1.75,1.84,3.98,3.3,6.67,4.38c2.7,1.08,6.38,2.25,11.06,3.51c6.2,1.71,11.26,3.42,15.17,5.13
		c3.91,1.71,7.24,4.34,9.98,7.89c2.74,3.55,4.11,8.29,4.11,14.23c0,4.77-1.28,9.26-3.84,13.48c-2.56,4.23-6.29,7.62-11.19,10.18
		c-4.9,2.56-10.68,3.84-17.33,3.84C1041.34,148.12,1035.68,147.02,1030.65,144.81z"/>
</g>
<g>
	<path class="st1" d="M365.25,245.97v-48.53h5.34v21.7h28.22v-21.7h5.34v48.53h-5.34v-22.05h-28.22v22.05H365.25z"/>
	<path class="st1" d="M425.22,245.97v-48.53h34.73v4.71h-29.4v16.99h19.2v4.65h-19.2v17.47h29.67v4.71H425.22z"/>
	<path class="st1" d="M474.3,245.97l20.11-48.53h6.45l19.97,48.53H515l-6.1-15.25h-22.88l-6.17,15.25H474.3z M487.89,226.14h19.14
		l-9.57-23.78L487.89,226.14z"/>
	<path class="st1" d="M536.84,245.97v-48.53h5.34v43.75h28.91v4.78H536.84z"/>
	<path class="st1" d="M592.1,245.97v-43.75h-17.54v-4.78h40.42v4.78h-17.54v43.75H592.1z"/>
	<path class="st1" d="M631.89,245.97v-48.53h5.34v21.7h28.22v-21.7h5.34v48.53h-5.34v-22.05h-28.22v22.05H631.89z"/>
	<path class="st1" d="M739.98,246.73c-3.51,0-6.78-0.65-9.81-1.94c-3.03-1.29-5.68-3.08-7.97-5.37c-2.29-2.29-4.08-4.94-5.37-7.97
		c-1.29-3.03-1.94-6.27-1.94-9.74c0-3.47,0.63-6.71,1.91-9.74c1.27-3.03,3.05-5.69,5.34-7.97s4.94-4.08,7.97-5.37
		c3.03-1.29,6.3-1.94,9.81-1.94c3.74,0,7.28,0.69,10.61,2.08c3.33,1.39,6.17,3.35,8.53,5.89l-3.61,3.67
		c-1.85-2.13-4.15-3.78-6.9-4.96c-2.75-1.18-5.63-1.77-8.63-1.77c-2.77,0-5.35,0.51-7.73,1.53c-2.38,1.02-4.46,2.44-6.24,4.26
		c-1.78,1.83-3.17,3.95-4.16,6.38c-0.99,2.43-1.49,5.07-1.49,7.94c0,2.82,0.5,5.45,1.49,7.9c0.99,2.45,2.38,4.59,4.16,6.41
		c1.78,1.83,3.86,3.25,6.24,4.26c2.38,1.02,4.96,1.53,7.73,1.53c3.28,0,6.25-0.72,8.91-2.15c2.66-1.43,4.81-3.4,6.45-5.89
		c1.64-2.5,2.6-5.31,2.88-8.46h-17.4v-4.71h22.81v2.15c0,3.37-0.6,6.52-1.8,9.43c-1.2,2.91-2.87,5.45-4.99,7.63
		c-2.13,2.17-4.62,3.87-7.49,5.1C746.4,246.12,743.3,246.73,739.98,246.73z"/>
	<path class="st1" d="M782.2,245.97v-48.53H803c3.19,0,5.96,0.58,8.32,1.73c2.36,1.16,4.19,2.77,5.51,4.85
		c1.32,2.08,1.98,4.53,1.98,7.35c0,3.19-0.94,5.93-2.81,8.22c-1.87,2.29-4.38,3.89-7.52,4.82l10.88,21.56h-5.89l-10.4-20.87h-15.53
		v20.87H782.2z M787.54,220.6h15.11c3.28,0,5.9-0.83,7.87-2.5c1.96-1.66,2.95-3.91,2.95-6.72c0-2.77-0.98-4.99-2.95-6.66
		c-1.97-1.66-4.59-2.5-7.87-2.5h-15.11V220.6z"/>
	<path class="st1" d="M860.06,246.73c-3.51,0-6.78-0.64-9.81-1.91c-3.03-1.27-5.68-3.05-7.97-5.34s-4.07-4.94-5.34-7.97
		c-1.27-3.03-1.91-6.3-1.91-9.81c0-3.51,0.63-6.78,1.91-9.81c1.27-3.03,3.05-5.69,5.34-7.97s4.94-4.07,7.97-5.34
		c3.03-1.27,6.3-1.91,9.81-1.91c3.47,0,6.71,0.64,9.74,1.91c3.03,1.27,5.68,3.05,7.97,5.34s4.07,4.95,5.34,7.97
		c1.27,3.03,1.91,6.3,1.91,9.81c0,3.51-0.64,6.78-1.91,9.81c-1.27,3.03-3.05,5.69-5.34,7.97s-4.95,4.07-7.97,5.34
		C866.77,246.1,863.52,246.73,860.06,246.73z M860.06,241.81c2.77,0,5.34-0.51,7.7-1.53c2.36-1.02,4.43-2.44,6.21-4.26
		c1.78-1.83,3.17-3.96,4.16-6.41c0.99-2.45,1.49-5.08,1.49-7.9c0-2.87-0.5-5.51-1.49-7.94c-0.99-2.43-2.38-4.55-4.16-6.38
		c-1.78-1.83-3.85-3.25-6.21-4.26c-2.36-1.02-4.92-1.53-7.7-1.53c-2.77,0-5.35,0.51-7.73,1.53c-2.38,1.02-4.46,2.44-6.24,4.26
		c-1.78,1.83-3.17,3.95-4.16,6.38c-0.99,2.43-1.49,5.07-1.49,7.94c0,2.82,0.5,5.45,1.49,7.9c0.99,2.45,2.38,4.59,4.16,6.41
		c1.78,1.83,3.86,3.25,6.24,4.26C854.7,241.3,857.28,241.81,860.06,241.81z"/>
	<path class="st1" d="M922.87,246.73c-4.11,0-7.67-0.87-10.68-2.6c-3.01-1.73-5.32-4.19-6.93-7.38c-1.62-3.19-2.43-6.96-2.43-11.3
		v-28.01h5.34v28.01c0,3.33,0.6,6.22,1.8,8.67c1.2,2.45,2.91,4.35,5.13,5.69c2.22,1.34,4.81,2.01,7.76,2.01c3,0,5.6-0.67,7.8-2.01
		c2.19-1.34,3.89-3.23,5.1-5.69c1.2-2.45,1.8-5.34,1.8-8.67v-28.01h5.34v28.01c0,4.35-0.82,8.11-2.46,11.3
		c-1.64,3.19-3.95,5.65-6.93,7.38C930.53,245.87,926.98,246.73,922.87,246.73z"/>
	<path class="st1" d="M963.01,245.97v-48.53h21.08c3.19,0,5.95,0.58,8.29,1.73c2.33,1.16,4.15,2.78,5.44,4.89
		c1.29,2.1,1.94,4.56,1.94,7.38c0,2.82-0.65,5.28-1.94,7.38c-1.29,2.1-3.12,3.74-5.48,4.92c-2.36,1.18-5.11,1.77-8.25,1.77h-15.74
		v20.45H963.01z M968.35,220.87h15.32c3.28,0,5.89-0.84,7.83-2.53c1.94-1.69,2.91-3.96,2.91-6.83s-0.97-5.13-2.91-6.79
		c-1.94-1.66-4.55-2.5-7.83-2.5h-15.32V220.87z"/>
</g>
</svg>
